<svg xmlns="http://www.w3.org/2000/svg" viewBox="0 0 283.69 45.02"><defs><style>.cls-1{fill:#fff;}</style></defs><title>bripa_logo_svg</title><g id="Ebene_2" data-name="Ebene 2"><g id="Ebene_1-2" data-name="Ebene 1"><path class="cls-1" d="M7.52,0V15.27a8.32,8.32,0,0,1,6.25-2.72,10.74,10.74,0,0,1,7.43,2.82,11.46,11.46,0,0,1,3.43,8.32,11.57,11.57,0,0,1-3.39,8.36A10,10,0,0,1,13.86,35a7.72,7.72,0,0,1-6.34-3v2.3H0V0Zm7.94,27.16a4.71,4.71,0,0,0,1.46-3.29,5.15,5.15,0,0,0-1.46-3.57,4.59,4.59,0,0,0-3.33-1.36,4.64,4.64,0,0,0-3.44,1.41,5.51,5.51,0,0,0-1.41,3.38,5.1,5.1,0,0,0,1.6,3.58,5.16,5.16,0,0,0,3.25,1.26A4.62,4.62,0,0,0,15.46,27.16Z"/><path class="cls-1" d="M26.51,13.25H34v3.43a6.72,6.72,0,0,1,3-2.91,8.22,8.22,0,0,1,3.9-.85c.19,0,.52.05,1.5.1v7.09a6.71,6.71,0,0,0-3.24-.75,4.91,4.91,0,0,0-3.43,1.13A6.33,6.33,0,0,0,34,25.28v9H26.51Z"/><path class="cls-1" d="M47.05.28a4.23,4.23,0,1,1-4.23,4.23A4.21,4.21,0,0,1,47.05.28Zm3.76,13v21H43.29v-21Z"/><path class="cls-1" d="M61,45H53.49V13.25H61v2.31a7.85,7.85,0,0,1,6.44-3,10.47,10.47,0,0,1,7.48,3,11.4,11.4,0,0,1,3.19,8.13,11.36,11.36,0,0,1-3.38,8.32A10.12,10.12,0,0,1,67.54,35,9,9,0,0,1,61,32.24Zm1.23-24.67a5.12,5.12,0,0,0-1.46,3.48,5,5,0,0,0,1.46,3.33,4.76,4.76,0,0,0,3.38,1.41A4.52,4.52,0,0,0,69,27.16a4.92,4.92,0,0,0,1.45-3.33A5.11,5.11,0,0,0,69,20.35a4.56,4.56,0,0,0-3.34-1.41A4.8,4.8,0,0,0,62.23,20.35Z"/><path class="cls-1" d="M96.25,13.25h7.52v21H96.25V32a7.85,7.85,0,0,1-6.53,3,10,10,0,0,1-7.56-3.34,10.56,10.56,0,0,1-3-7.71,11.62,11.62,0,0,1,3.24-8.41,10.81,10.81,0,0,1,7.57-3,8.32,8.32,0,0,1,6.29,2.72ZM88.36,20.3a5,5,0,0,0-1.51,3.43,4.83,4.83,0,0,0,1.46,3.43,5.25,5.25,0,0,0,3.39,1.41,4.81,4.81,0,0,0,3.38-1.45,4.56,4.56,0,0,0,1.41-3.39A4.64,4.64,0,0,0,95,20.3a4.77,4.77,0,0,0-6.67,0Z"/><path class="cls-1" d="M107.73,21.25v-8h3.1a2.25,2.25,0,0,1,1.75.62,2.19,2.19,0,0,1,.49,1.5,2,2,0,0,1-.23,1,1.32,1.32,0,0,1-.65.63,1.92,1.92,0,0,1,1.09.48,2,2,0,0,1,.54,1.46,2.18,2.18,0,0,1-.58,1.57,3,3,0,0,1-2.17.76Zm2.08-4.85h.38a1.07,1.07,0,0,0,.79-.25.78.78,0,0,0,.19-.53.83.83,0,0,0-.19-.54,1.1,1.1,0,0,0-.79-.24h-.38Zm0,3.23h.46a1.73,1.73,0,0,0,1.29-.33.77.77,0,0,0,.17-.51.83.83,0,0,0-.21-.58,2,2,0,0,0-1.28-.26h-.43Z"/><path class="cls-1" d="M116.26,15.89v3a1,1,0,0,0,.29.78,1,1,0,0,0,.67.21.93.93,0,0,0,.69-.23,1,1,0,0,0,.27-.76v-3h1.92v3.34a1.84,1.84,0,0,1-.52,1.44,3.07,3.07,0,0,1-2.31.76,3.2,3.2,0,0,1-2.42-.77,1.92,1.92,0,0,1-.51-1.43V15.89Z"/><path class="cls-1" d="M121.15,19.47a2.92,2.92,0,0,0,.76.4,2.63,2.63,0,0,0,.75.13.81.81,0,0,0,.49-.15.31.31,0,0,0,.1-.25.32.32,0,0,0-.1-.24,1.34,1.34,0,0,0-.5-.19l-.51-.12a1.68,1.68,0,0,1-.93-.47,1.25,1.25,0,0,1-.35-.92,1.91,1.91,0,0,1,.5-1.31,2.71,2.71,0,0,1,1.92-.64,4.52,4.52,0,0,1,1.72.34l-.65,1.23a2.64,2.64,0,0,0-1-.27.82.82,0,0,0-.44.11.28.28,0,0,0-.17.26.31.31,0,0,0,.23.3,4.69,4.69,0,0,0,.63.16l.35.1a2.13,2.13,0,0,1,.79.42,1.48,1.48,0,0,1,.41,1.06,1.76,1.76,0,0,1-.54,1.33,2.76,2.76,0,0,1-2,.68,3.94,3.94,0,0,1-2.16-.63Z"/><path class="cls-1" d="M126.46,12.57a1.08,1.08,0,1,1-1.08,1.08A1.08,1.08,0,0,1,126.46,12.57Zm1,3.32v5.36H125.5V15.89Z"/><path class="cls-1" d="M128.11,15.89H130v.67a2,2,0,0,1,1.7-.79,2.17,2.17,0,0,1,1.58.57,1.84,1.84,0,0,1,.51,1.5v3.41H131.9V18.54a1.57,1.57,0,0,0-.24-1.05.81.81,0,0,0-.61-.23,1,1,0,0,0-.71.26,1.23,1.23,0,0,0-.31.85v2.88h-1.92Z"/><path class="cls-1" d="M140.19,18.92h-4a1.35,1.35,0,0,0,.34.9,1.08,1.08,0,0,0,.79.26,1.47,1.47,0,0,0,.62-.14.85.85,0,0,0,.34-.36h1.84a2.5,2.5,0,0,1-.65,1.1,2.89,2.89,0,0,1-2.18.75,3,3,0,0,1-2.22-.82,3,3,0,0,1,0-4.1,3,3,0,0,1,2.19-.78,3,3,0,0,1,2.07.73,3,3,0,0,1,.85,2.26Zm-1.77-1.1a1.05,1.05,0,0,0-1.1-.87,1.06,1.06,0,0,0-.78.29,1.14,1.14,0,0,0-.29.58Z"/><path class="cls-1" d="M141,19.47a2.82,2.82,0,0,0,.77.4,2.62,2.62,0,0,0,.74.13.81.81,0,0,0,.49-.15.35.35,0,0,0,0-.49,1.34,1.34,0,0,0-.5-.19l-.51-.12a1.68,1.68,0,0,1-.93-.47,1.29,1.29,0,0,1-.35-.92,1.91,1.91,0,0,1,.5-1.31,2.71,2.71,0,0,1,1.92-.64,4.47,4.47,0,0,1,1.72.34l-.65,1.23a2.64,2.64,0,0,0-1-.27.82.82,0,0,0-.44.11.28.28,0,0,0-.17.26.31.31,0,0,0,.23.3,4.9,4.9,0,0,0,.64.16l.34.1a2.13,2.13,0,0,1,.79.42,1.48,1.48,0,0,1,.41,1.06,1.76,1.76,0,0,1-.54,1.33,2.76,2.76,0,0,1-2,.68,3.94,3.94,0,0,1-2.16-.63Z"/><path class="cls-1" d="M145.72,19.47a3,3,0,0,0,.77.4,2.62,2.62,0,0,0,.74.13.82.82,0,0,0,.5-.15.38.38,0,0,0,0-.49,1.39,1.39,0,0,0-.51-.19l-.5-.12a1.67,1.67,0,0,1-.94-.47,1.29,1.29,0,0,1-.35-.92,1.91,1.91,0,0,1,.51-1.31,2.71,2.71,0,0,1,1.92-.64,4.46,4.46,0,0,1,1.71.34l-.65,1.23a2.64,2.64,0,0,0-1-.27.86.86,0,0,0-.45.11.29.29,0,0,0-.16.26.3.3,0,0,0,.22.3,4.9,4.9,0,0,0,.64.16l.35.1a2.21,2.21,0,0,1,.79.42,1.52,1.52,0,0,1,.41,1.06,1.8,1.8,0,0,1-.54,1.33,2.79,2.79,0,0,1-2,.68A3.92,3.92,0,0,1,145,20.8Z"/><path class="cls-1" d="M155.67,13.25a2.56,2.56,0,0,1,2,.7,2.64,2.64,0,0,1,.69,1.8,2.28,2.28,0,0,1-.64,1.67,2.21,2.21,0,0,1-1.1.55l2.5,3.28H156.5l-2-3.07v3.07h-2.08v-8Zm-1.16,3.58h.39a1.56,1.56,0,0,0,1-.32,1,1,0,0,0,.26-.67.92.92,0,0,0-.27-.67,1.39,1.39,0,0,0-1-.32h-.39Z"/><path class="cls-1" d="M164.84,18.92h-4a1.35,1.35,0,0,0,.34.9,1.08,1.08,0,0,0,.79.26,1.5,1.5,0,0,0,.62-.14.91.91,0,0,0,.34-.36h1.83a2.37,2.37,0,0,1-.64,1.1,2.9,2.9,0,0,1-2.19.75,3.06,3.06,0,0,1-2.22-.82,3,3,0,0,1,0-4.1,3,3,0,0,1,2.19-.78,2.92,2.92,0,0,1,2.06.73,3,3,0,0,1,.86,2.26Zm-1.77-1.1a1.3,1.3,0,0,0-.31-.58A1.13,1.13,0,0,0,162,17a1,1,0,0,0-.78.29,1.14,1.14,0,0,0-.29.58Z"/><path class="cls-1" d="M165.32,12.5h1.92v4.06a2.22,2.22,0,0,1,.6-.53,2.09,2.09,0,0,1,1.1-.26,2.14,2.14,0,0,1,1.58.57,1.87,1.87,0,0,1,.51,1.5v3.41h-1.92V18.54a1.65,1.65,0,0,0-.24-1.05.78.78,0,0,0-.61-.23,1,1,0,0,0-.7.23,1.18,1.18,0,0,0-.32.88v2.88h-1.92Z"/><path class="cls-1" d="M175.42,15.89h1.92v5.36h-1.92v-.59a2,2,0,0,1-1.67.77,2.57,2.57,0,0,1-1.93-.86,2.72,2.72,0,0,1-.77-2,3,3,0,0,1,.83-2.15,2.74,2.74,0,0,1,1.93-.75,2.13,2.13,0,0,1,1.61.69Zm-2,1.79a1.28,1.28,0,0,0-.38.88,1.25,1.25,0,0,0,.37.88,1.37,1.37,0,0,0,.87.35,1.22,1.22,0,0,0,.86-.37,1.14,1.14,0,0,0,.36-.86,1.2,1.2,0,0,0-.37-.88,1.27,1.27,0,0,0-.87-.34A1.24,1.24,0,0,0,173.4,17.68Z"/><path class="cls-1" d="M180,12.5v3.9a2.1,2.1,0,0,1,1.59-.69,2.76,2.76,0,0,1,1.9.71,3.06,3.06,0,0,1,0,4.26,2.58,2.58,0,0,1-1.88.75,2,2,0,0,1-1.62-.77v.59H178V12.5Zm2,6.94a1.21,1.21,0,0,0,.38-.84,1.33,1.33,0,0,0-.38-.92,1.18,1.18,0,0,0-.85-.34,1.14,1.14,0,0,0-.87.36,1.34,1.34,0,0,0-.36.86,1.29,1.29,0,0,0,.4.91,1.33,1.33,0,0,0,.83.32A1.18,1.18,0,0,0,182,19.44Z"/><path class="cls-1" d="M185.77,12.57a1.08,1.08,0,1,1-1.08,1.08A1.08,1.08,0,0,1,185.77,12.57Zm1,3.32v5.36h-1.92V15.89Z"/><path class="cls-1" d="M189.33,12.5v8.75h-1.92V12.5Z"/><path class="cls-1" d="M191,12.57a1.08,1.08,0,1,1-1.08,1.08A1.08,1.08,0,0,1,191,12.57Zm1,3.32v5.36H190V15.89Z"/><path class="cls-1" d="M194.74,17.46v3.79h-1.92V17.46h-.61V15.89h.61V14.12h1.92v1.77h1.09v1.57Z"/><path class="cls-1" d="M200.08,15.89H202v5.36h-1.92v-.59a2,2,0,0,1-1.67.77,2.57,2.57,0,0,1-1.93-.86,2.72,2.72,0,0,1-.77-2,3,3,0,0,1,.83-2.15,2.74,2.74,0,0,1,1.93-.75,2.13,2.13,0,0,1,1.61.69Zm-2,1.79a1.28,1.28,0,0,0-.38.88,1.25,1.25,0,0,0,.37.88,1.37,1.37,0,0,0,.87.35,1.22,1.22,0,0,0,.86-.37,1.14,1.14,0,0,0,.36-.86,1.2,1.2,0,0,0-.37-.88,1.27,1.27,0,0,0-.87-.34A1.24,1.24,0,0,0,198.06,17.68Z"/><path class="cls-1" d="M204.82,17.46v3.79H202.9V17.46h-.61V15.89h.61V14.12h1.92v1.77h1.09v1.57Z"/><path class="cls-1" d="M207,12.57a1.08,1.08,0,1,1-1.08,1.08A1.08,1.08,0,0,1,207,12.57Zm1,3.32v5.36H206V15.89Z"/><path class="cls-1" d="M214,20.54a3.24,3.24,0,0,1-2.4.89,3.2,3.2,0,0,1-2.38-.89,2.76,2.76,0,0,1,0-3.95,3.34,3.34,0,0,1,2.38-.88,3.38,3.38,0,0,1,2.4.88,2.76,2.76,0,0,1,0,3.95Zm-3.25-2.86a1.25,1.25,0,0,0-.37.88,1.22,1.22,0,0,0,2.09.85,1.18,1.18,0,0,0,.37-.85,1.31,1.31,0,0,0-.37-.88,1.36,1.36,0,0,0-.86-.34A1.34,1.34,0,0,0,210.76,17.68Z"/><path class="cls-1" d="M215.32,15.89h1.92v.67a2,2,0,0,1,1.7-.79,2.19,2.19,0,0,1,1.59.57,1.87,1.87,0,0,1,.5,1.5v3.41h-1.92V18.54a1.57,1.57,0,0,0-.24-1.05.81.81,0,0,0-.61-.23,1,1,0,0,0-.71.26,1.23,1.23,0,0,0-.31.85v2.88h-1.92Z"/><path class="cls-1" d="M228,15.89H230v5.36H228v-.59a2,2,0,0,1-1.67.77,2.57,2.57,0,0,1-1.93-.86,2.68,2.68,0,0,1-.77-2,3,3,0,0,1,.83-2.15,2.74,2.74,0,0,1,1.93-.75,2.15,2.15,0,0,1,1.61.69Zm-2,1.79a1.28,1.28,0,0,0-.38.88,1.25,1.25,0,0,0,.37.88,1.37,1.37,0,0,0,.87.35,1.22,1.22,0,0,0,.86-.37,1.14,1.14,0,0,0,.36-.86,1.2,1.2,0,0,0-.37-.88,1.27,1.27,0,0,0-.87-.34A1.24,1.24,0,0,0,226,17.68Z"/><path class="cls-1" d="M230.66,15.89h1.92v.67a2,2,0,0,1,1.7-.79,2.17,2.17,0,0,1,1.58.57,1.84,1.84,0,0,1,.51,1.5v3.41h-1.92V18.54a1.57,1.57,0,0,0-.24-1.05.81.81,0,0,0-.61-.23,1,1,0,0,0-.71.26,1.23,1.23,0,0,0-.31.85v2.88h-1.92Z"/><path class="cls-1" d="M243.12,21.25H241.2v-.59a2,2,0,0,1-1.62.77,2.58,2.58,0,0,1-1.88-.75,3.06,3.06,0,0,1,0-4.26,2.76,2.76,0,0,1,1.9-.71,2.12,2.12,0,0,1,1.59.69V12.5h1.92Zm-2.27-1.78a1.26,1.26,0,0,0,.41-.91,1.39,1.39,0,0,0-.36-.86,1.14,1.14,0,0,0-.87-.36,1.18,1.18,0,0,0-.85.34,1.33,1.33,0,0,0-.38.92,1.21,1.21,0,0,0,.38.84,1.18,1.18,0,0,0,.85.35A1.28,1.28,0,0,0,240.85,19.47Z"/><path class="cls-1" d="M109.81,26.25v8h-2.08v-8Z"/><path class="cls-1" d="M110.68,28.89h1.92v.67a2,2,0,0,1,1.71-.79,2.18,2.18,0,0,1,1.58.57,1.87,1.87,0,0,1,.5,1.5v3.41h-1.92V31.54a1.57,1.57,0,0,0-.24-1.05.81.81,0,0,0-.61-.23,1,1,0,0,0-.71.26,1.23,1.23,0,0,0-.31.85v2.88h-1.92Z"/><path class="cls-1" d="M117.43,32.47a2.77,2.77,0,0,0,.76.4,2.63,2.63,0,0,0,.75.13.81.81,0,0,0,.49-.15.31.31,0,0,0,.1-.25.32.32,0,0,0-.1-.24,1.34,1.34,0,0,0-.5-.19l-.51-.12a1.65,1.65,0,0,1-.93-.47,1.25,1.25,0,0,1-.35-.92,1.91,1.91,0,0,1,.5-1.31,2.71,2.71,0,0,1,1.92-.64,4.57,4.57,0,0,1,1.72.34l-.65,1.23a2.64,2.64,0,0,0-1-.27.82.82,0,0,0-.44.11.28.28,0,0,0-.17.26.31.31,0,0,0,.23.3,4.69,4.69,0,0,0,.63.16l.35.1a2.13,2.13,0,0,1,.79.42,1.48,1.48,0,0,1,.41,1.06,1.76,1.76,0,0,1-.54,1.33,2.76,2.76,0,0,1-2,.68,3.94,3.94,0,0,1-2.16-.63Z"/><path class="cls-1" d="M127.18,33.54a3.67,3.67,0,0,1-4.79,0,2.79,2.79,0,0,1,0-3.95,3.7,3.7,0,0,1,4.79,0,2.76,2.76,0,0,1,0,3.95Zm-3.25-2.86a1.25,1.25,0,0,0-.37.88,1.25,1.25,0,0,0,1.23,1.21A1.27,1.27,0,0,0,126,31.56a1.23,1.23,0,0,0-1.23-1.22A1.34,1.34,0,0,0,123.93,30.68Z"/><path class="cls-1" d="M130.41,25.5v8.75h-1.92V25.5Z"/><path class="cls-1" d="M132.58,28.89l1.29,2.74,1.3-2.74h2.14l-2.8,5.36h-1.3l-2.77-5.36Z"/><path class="cls-1" d="M142.73,31.92h-4a1.39,1.39,0,0,0,.33.9,1.09,1.09,0,0,0,.8.26,1.53,1.53,0,0,0,.62-.14.83.83,0,0,0,.33-.36h1.84a2.32,2.32,0,0,1-.65,1.1,2.88,2.88,0,0,1-2.18.75,3,3,0,0,1-2.22-.82,3,3,0,0,1,0-4.1,3,3,0,0,1,2.2-.78,2.94,2.94,0,0,1,2.06.73,3,3,0,0,1,.85,2.26ZM141,30.82a1.3,1.3,0,0,0-.31-.58,1.14,1.14,0,0,0-.79-.29,1,1,0,0,0-.78.29,1,1,0,0,0-.29.58Z"/><path class="cls-1" d="M143.21,28.89h1.92v.67a2,2,0,0,1,1.71-.79,2.17,2.17,0,0,1,1.58.57,1.83,1.83,0,0,1,.5,1.5v3.41H147V31.54a1.51,1.51,0,0,0-.24-1.05.8.8,0,0,0-.61-.23,1,1,0,0,0-.7.26,1.19,1.19,0,0,0-.32.85v2.88h-1.92Z"/><path class="cls-1" d="M153.66,34.13a2.84,2.84,0,0,1-1.33.3,3,3,0,0,1-2.11-.82,2.81,2.81,0,0,1-.82-2,2.93,2.93,0,0,1,.86-2.08,3.09,3.09,0,0,1,2.16-.81,2.71,2.71,0,0,1,1.24.3v1.6a1.68,1.68,0,0,0-1-.34,1.28,1.28,0,0,0-.94.37,1.31,1.31,0,0,0-.37.92,1.37,1.37,0,0,0,.34.9,1.3,1.3,0,0,0,1,.41,1.42,1.42,0,0,0,1-.36Z"/><path class="cls-1" d="M156.07,33.51l-2.6-4.62h2.24l1.42,2.74,1.39-2.74h2.2L156.41,37h-2.14Z"/><path class="cls-1" d="M165.19,31.6v2.65h-2.08v-8h3.31a2.74,2.74,0,0,1,2,.72,2.48,2.48,0,0,1,.74,1.94,2.58,2.58,0,0,1-.71,2,2.66,2.66,0,0,1-2,.7Zm0-1.68h.69a1.37,1.37,0,0,0,.88-.26.9.9,0,0,0,.26-.73,1,1,0,0,0-.24-.72,1.22,1.22,0,0,0-.89-.28h-.7Z"/><path class="cls-1" d="M169.49,28.89h1.92v.87a1.69,1.69,0,0,1,.76-.74,2,2,0,0,1,1-.22l.39,0v1.81a1.66,1.66,0,0,0-.83-.2,1.29,1.29,0,0,0-.88.29,1.66,1.66,0,0,0-.43,1.23v2.29h-1.92Z"/><path class="cls-1" d="M177.93,28.89h1.92v5.36h-1.92v-.59a2,2,0,0,1-1.67.77,2.55,2.55,0,0,1-1.93-.86,2.68,2.68,0,0,1-.77-2,3,3,0,0,1,.83-2.15,2.74,2.74,0,0,1,1.93-.75,2.15,2.15,0,0,1,1.61.69Zm-2,1.79a1.28,1.28,0,0,0-.38.88,1.25,1.25,0,0,0,.37.88,1.34,1.34,0,0,0,.86.35,1.23,1.23,0,0,0,.87-.37,1.14,1.14,0,0,0,.36-.86,1.2,1.2,0,0,0-.37-.88,1.27,1.27,0,0,0-.87-.34A1.24,1.24,0,0,0,175.91,30.68Z"/><path class="cls-1" d="M184.6,34.13a2.89,2.89,0,0,1-1.33.3,3,3,0,0,1-2.11-.82,2.77,2.77,0,0,1-.83-2,2.93,2.93,0,0,1,.86-2.08,3.11,3.11,0,0,1,2.16-.81,2.75,2.75,0,0,1,1.25.3v1.6a1.71,1.71,0,0,0-1-.34,1.26,1.26,0,0,0-1.3,1.29,1.36,1.36,0,0,0,.33.9,1.31,1.31,0,0,0,1,.41,1.46,1.46,0,0,0,1-.36Z"/><path class="cls-1" d="M187.31,30.46v3.79h-1.92V30.46h-.61V28.89h.61V27.12h1.92v1.77h1.09v1.57Z"/><path class="cls-1" d="M189.46,25.57a1.08,1.08,0,1,1-1.08,1.08A1.08,1.08,0,0,1,189.46,25.57Zm1,3.32v5.36H188.5V28.89Z"/><path class="cls-1" d="M193.23,30.46v3.79h-1.92V30.46h-.61V28.89h.61V27.12h1.92v1.77h1.09v1.57Z"/><path class="cls-1" d="M195.38,25.57a1.08,1.08,0,1,1-1.08,1.08A1.08,1.08,0,0,1,195.38,25.57Zm1,3.32v5.36h-1.92V28.89Z"/><path class="cls-1" d="M202.42,33.54a3.67,3.67,0,0,1-4.79,0,2.79,2.79,0,0,1,0-3.95,3.7,3.7,0,0,1,4.79,0,2.76,2.76,0,0,1,0,3.95Zm-3.25-2.86a1.25,1.25,0,0,0-.37.88A1.25,1.25,0,0,0,200,32.77a1.2,1.2,0,0,0,.85-.36,1.18,1.18,0,0,0,.37-.85A1.21,1.21,0,0,0,200,30.34,1.32,1.32,0,0,0,199.17,30.68Z"/><path class="cls-1" d="M203.73,28.89h1.92v.67a2,2,0,0,1,1.7-.79,2.17,2.17,0,0,1,1.58.57,1.84,1.84,0,0,1,.51,1.5v3.41h-1.92V31.54a1.57,1.57,0,0,0-.24-1.05.81.81,0,0,0-.61-.23,1,1,0,0,0-.71.26,1.23,1.23,0,0,0-.31.85v2.88h-1.92Z"/><path class="cls-1" d="M215.81,31.92h-4a1.34,1.34,0,0,0,.33.9,1.08,1.08,0,0,0,.79.26,1.54,1.54,0,0,0,.63-.14.83.83,0,0,0,.33-.36h1.84a2.41,2.41,0,0,1-.65,1.1,2.89,2.89,0,0,1-2.18.75,3,3,0,0,1-2.22-.82,3,3,0,0,1,0-4.1,3,3,0,0,1,2.2-.78,2.94,2.94,0,0,1,2.06.73,3,3,0,0,1,.85,2.26Zm-1.76-1.1a1.3,1.3,0,0,0-.31-.58,1.15,1.15,0,0,0-.8-.29,1,1,0,0,0-1.06.87Z"/><path class="cls-1" d="M216.29,28.89h1.92v.87A1.69,1.69,0,0,1,219,29a2,2,0,0,1,1-.22l.39,0v1.81a1.66,1.66,0,0,0-.83-.2,1.29,1.29,0,0,0-.88.29,1.66,1.66,0,0,0-.43,1.23v2.29h-1.92Z"/><path class="cls-1" d="M220.92,32.47a3,3,0,0,0,.77.4,2.63,2.63,0,0,0,.75.13.81.81,0,0,0,.49-.15.38.38,0,0,0,0-.49,1.33,1.33,0,0,0-.51-.19l-.5-.12a1.7,1.7,0,0,1-.94-.47,1.29,1.29,0,0,1-.34-.92,1.91,1.91,0,0,1,.5-1.31,2.71,2.71,0,0,1,1.92-.64,4.46,4.46,0,0,1,1.71.34l-.64,1.23a2.69,2.69,0,0,0-1-.27.82.82,0,0,0-.44.11.28.28,0,0,0-.17.26.31.31,0,0,0,.23.3,4.69,4.69,0,0,0,.63.16l.35.1a2.21,2.21,0,0,1,.79.42,1.52,1.52,0,0,1,.41,1.06,1.8,1.8,0,0,1-.54,1.33,2.79,2.79,0,0,1-2,.68,3.94,3.94,0,0,1-2.16-.63Z"/><path class="cls-1" d="M232.51,32.9h-2.9l-.54,1.35h-2.19l3.07-8h2.26l3,8H233ZM232,31.32l-.9-2.59-.87,2.59Z"/><path class="cls-1" d="M235.7,32.47a2.77,2.77,0,0,0,.76.4,2.63,2.63,0,0,0,.75.13.81.81,0,0,0,.49-.15.38.38,0,0,0,0-.49,1.34,1.34,0,0,0-.5-.19l-.51-.12a1.65,1.65,0,0,1-.93-.47,1.25,1.25,0,0,1-.35-.92,1.91,1.91,0,0,1,.5-1.31,2.71,2.71,0,0,1,1.92-.64,4.57,4.57,0,0,1,1.72.34l-.65,1.23a2.69,2.69,0,0,0-1-.27.82.82,0,0,0-.44.11.28.28,0,0,0-.17.26.31.31,0,0,0,.23.3,4.69,4.69,0,0,0,.63.16l.35.1a2.13,2.13,0,0,1,.79.42,1.48,1.48,0,0,1,.41,1.06,1.8,1.8,0,0,1-.54,1.33,2.76,2.76,0,0,1-2,.68A3.94,3.94,0,0,1,235,33.8Z"/><path class="cls-1" d="M240.4,32.47a2.82,2.82,0,0,0,.77.4,2.62,2.62,0,0,0,.74.13.79.79,0,0,0,.49-.15.35.35,0,0,0,0-.49,1.34,1.34,0,0,0-.5-.19l-.5-.12a1.67,1.67,0,0,1-.94-.47,1.29,1.29,0,0,1-.35-.92,1.91,1.91,0,0,1,.51-1.31,2.68,2.68,0,0,1,1.92-.64,4.46,4.46,0,0,1,1.71.34l-.65,1.23a2.64,2.64,0,0,0-1-.27.82.82,0,0,0-.44.11.28.28,0,0,0-.17.26.31.31,0,0,0,.23.3,4.9,4.9,0,0,0,.64.16l.34.1a2.18,2.18,0,0,1,.8.42,1.52,1.52,0,0,1,.4,1.06,1.76,1.76,0,0,1-.54,1.33,2.75,2.75,0,0,1-2,.68,3.92,3.92,0,0,1-2.16-.63Z"/><path class="cls-1" d="M250.15,33.54a3.65,3.65,0,0,1-4.78,0,2.76,2.76,0,0,1,0-3.95,3.34,3.34,0,0,1,2.38-.88,3.38,3.38,0,0,1,2.4.88,2.76,2.76,0,0,1,0,3.95Zm-3.25-2.86a1.2,1.2,0,0,0,0,1.73,1.21,1.21,0,0,0,1.72,0,1.18,1.18,0,0,0,.37-.85,1.31,1.31,0,0,0-.37-.88,1.34,1.34,0,0,0-.85-.34A1.37,1.37,0,0,0,246.9,30.68Z"/><path class="cls-1" d="M255.52,34.13a2.89,2.89,0,0,1-1.33.3,3,3,0,0,1-2.11-.82,2.77,2.77,0,0,1-.83-2,2.93,2.93,0,0,1,.86-2.08,3.11,3.11,0,0,1,2.16-.81,2.75,2.75,0,0,1,1.25.3v1.6a1.71,1.71,0,0,0-1-.34,1.26,1.26,0,0,0-.93.37,1.28,1.28,0,0,0-.38.92,1.37,1.37,0,0,0,.34.9,1.3,1.3,0,0,0,1,.41,1.46,1.46,0,0,0,1-.36Z"/><path class="cls-1" d="M257,25.57a1.08,1.08,0,1,1-1.08,1.08A1.08,1.08,0,0,1,257,25.57Zm1,3.32v5.36H256V28.89Z"/><path class="cls-1" d="M262.74,28.89h1.92v5.36h-1.92v-.59a2,2,0,0,1-1.67.77,2.57,2.57,0,0,1-1.93-.86,2.71,2.71,0,0,1-.76-2,3,3,0,0,1,.82-2.15,2.76,2.76,0,0,1,1.93-.75,2.13,2.13,0,0,1,1.61.69Zm-2,1.79a1.21,1.21,0,0,0,0,1.76,1.37,1.37,0,0,0,.87.35,1.22,1.22,0,0,0,.86-.37,1.14,1.14,0,0,0,.36-.86,1.2,1.2,0,0,0-.37-.88,1.27,1.27,0,0,0-.86-.34A1.22,1.22,0,0,0,260.73,30.68Z"/><path class="cls-1" d="M267.48,30.46v3.79h-1.92V30.46H265V28.89h.61V27.12h1.92v1.77h1.09v1.57Z"/><path class="cls-1" d="M269.63,25.57a1.08,1.08,0,1,1-1.08,1.08A1.08,1.08,0,0,1,269.63,25.57Zm1,3.32v5.36h-1.92V28.89Z"/><path class="cls-1" d="M276.67,33.54a3.24,3.24,0,0,1-2.4.89,3.2,3.2,0,0,1-2.38-.89,2.76,2.76,0,0,1,0-3.95,3.34,3.34,0,0,1,2.38-.88,3.38,3.38,0,0,1,2.4.88,2.76,2.76,0,0,1,0,3.95Zm-3.25-2.86a1.2,1.2,0,0,0,0,1.73,1.21,1.21,0,0,0,1.72,0,1.18,1.18,0,0,0,.37-.85,1.31,1.31,0,0,0-.37-.88,1.26,1.26,0,0,0-1.72,0Z"/><path class="cls-1" d="M278,28.89h1.92v.67a2,2,0,0,1,1.71-.79,2.17,2.17,0,0,1,1.58.57,1.87,1.87,0,0,1,.5,1.5v3.41h-1.92V31.54a1.51,1.51,0,0,0-.24-1.05.81.81,0,0,0-.61-.23,1,1,0,0,0-.71.26,1.23,1.23,0,0,0-.31.85v2.88H278Z"/></g></g></svg>