<svg xmlns="http://www.w3.org/2000/svg" viewBox="0 0 1440 320">
    <path id="first-wave" fill="#0099ff" fill-opacity="0.7" d="M0,128L96,192L192,32L288,128L384,192L480,320L576,224L672,224L768,288L864,128L960,192L1056,256L1152,224L1248,256L1344,160L1440,256L1440,320L1344,320L1248,320L1152,320L1056,320L960,320L864,320L768,320L672,320L576,320L480,320L384,320L288,320L192,320L96,320L0,320Z"></path>
    <path id="second-wave" fill="#0099ff" style="visibility: hidden;" fill-opacity="0.7" d="M0,256L96,320L192,160L288,96L384,256L480,32L576,224L672,32L768,96L864,320L960,32L1056,256L1152,192L1248,0L1344,96L1440,224L1440,320L1344,320L1248,320L1152,320L1056,320L960,320L864,320L768,320L672,320L576,320L480,320L384,320L288,320L192,320L96,320L0,320Z"></path>
    <path id="third-wave" fill="#0099ff" style="visibility: hidden;" fill-opacity="0.7" d="M0,96L96,32L192,128L288,224L384,192L480,256L576,160L672,224L768,288L864,160L960,224L1056,32L1152,320L1248,64L1344,128L1440,64L1440,320L1344,320L1248,320L1152,320L1056,320L960,320L864,320L768,320L672,320L576,320L480,320L384,320L288,320L192,320L96,320L0,320Z"></path>
    <path id="first-wave-duplicate" style="visibility: hidden;" fill="#0099ff" fill-opacity="0.7" d="M0,128L96,192L192,32L288,128L384,192L480,320L576,224L672,224L768,288L864,128L960,192L1056,256L1152,224L1248,256L1344,160L1440,256L1440,320L1344,320L1248,320L1152,320L1056,320L960,320L864,320L768,320L672,320L576,320L480,320L384,320L288,320L192,320L96,320L0,320Z"></path>
</svg>