<?xml version="1.0" encoding="utf-8"?>
<!-- Generator: Adobe Illustrator 19.0.0, SVG Export Plug-In . SVG Version: 6.00 Build 0)  -->
<svg version="1.1" id="Layer_1" xmlns="http://www.w3.org/2000/svg" xmlns:xlink="http://www.w3.org/1999/xlink" x="0px" y="0px"
	 viewBox="360 561 1440 320" style="enable-background:new 360 561 1440 320;" xml:space="preserve">
<style type="text/css">
	.st0{display:none;opacity:0.7;}
	.st1{opacity:0.7;}
</style>
<path id="first-wave-duplicate" class="st0" d="M708.7,881L891,857l189-26.4l272.1-1.5l307.3-99.6l140.6-18.9V881H875.3H708.7z"/>
<path id="first-wave_1_" class="st0" d="M708.7,881L891,857l189-26.4l272.1-1.5l307.3-99.6l140.6-18.9V881H875.3H708.7z"/>
<path id="second-wave" class="st0" d="M708.7,881L891,857l202-46l300-10l301-80l106-46.4V881H875.3H708.7z"/>
<path id="third-wave" class="st1" d="M708.7,881L891,857l151-63l327,4l240-62l191-77.9V881H875.3H708.7z"/>
</svg>
